<?xml version="1.0" standalone="no"?>
<svg viewBox="0 0 200 200" xmlns="http://www.w3.org/2000/svg">
  <path fill="#F3F1E9" d="M44.4,-76.8C57.9,-69,69.6,-58,77.6,-44.6C85.5,-31.3,89.8,-15.6,89.1,-0.4C88.3,14.8,82.6,29.6,75.2,43.8C67.7,58,58.4,71.6,45.6,79.1C32.8,86.7,16.4,88.3,0.5,87.4C-15.3,86.4,-30.7,83.1,-44.7,76.2C-58.8,69.4,-71.6,59,-78.8,45.7C-86.1,32.5,-87.8,16.2,-86.5,0.7C-85.2,-14.8,-81,-29.5,-73.6,-42.6C-66.3,-55.7,-55.8,-67.2,-43.1,-75.4C-30.3,-83.6,-15.1,-88.5,0.1,-88.7C15.4,-88.9,30.8,-84.5,44.4,-76.8Z" transform="translate(100 100)" />
</svg>
