<?xml version="1.0" standalone="no"?>
<svg viewBox="0 0 200 200" xmlns="http://www.w3.org/2000/svg">
  <path fill="#F1E3CC" d="M41.6,-63.6C56.2,-55.3,72.1,-47.7,81.7,-34.9C91.3,-22.1,94.6,-4,89.9,11.4C85.3,26.7,72.7,39.4,60.2,50.2C47.8,61,35.5,69.9,21.7,73.8C8,77.7,-7.1,76.6,-21.3,72.5C-35.6,68.4,-49,61.3,-60.5,50.8C-71.9,40.4,-81.3,26.7,-80.4,13.3C-79.6,-0.1,-68.6,-13.2,-61.7,-28.1C-54.8,-43.1,-52,-59.8,-42.4,-70.5C-32.8,-81.2,-16.4,-85.8,-1.5,-83.5C13.4,-81.2,26.9,-72,41.6,-63.6Z" transform="translate(100 100)" />
</svg>
